<svg xmlns="http://www.w3.org/2000/svg" width="24" height="24" fill="white" viewBox="0 0 24 24">
  <path d="M12 .5C5.7.5.6 5.6.6 11.9c0 5 3.2 9.2 7.6 10.7.6.1.8-.3.8-.6v-2.1c-3.1.7-3.8-1.3-3.8-1.3-.5-1.2-1.2-1.6-1.2-1.6-1-.7.1-.7.1-.7 1.1.1 1.6 1.1 1.6 1.1 1 .1.9 1.5.9 1.5.9 1.5 2.3 1.1 2.9.8.1-.7.4-1.1.7-1.3-2.5-.3-5.1-1.3-5.1-5.6 0-1.2.4-2.2 1.1-3-.1-.3-.5-1.5.1-3.1 0 0 .9-.3 3 .9.9-.3 1.9-.5 2.9-.5s2 .2 2.9.5c2.1-1.2 3-.9 3-.9.6 1.6.2 2.8.1 3.1.7.8 1.1 1.8 1.1 3 0 4.3-2.6 5.3-5.1 5.6.4.3.7.9.7 1.8v2.7c0 .3.2.7.8.6 4.5-1.5 7.7-5.7 7.7-10.7C23.4 5.6 18.3.5 12 .5z"/>
</svg>
