<svg width="1920" height="750" viewBox="0 0 1920 750" fill="none" xmlns="http://www.w3.org/2000/svg">
<g clip-path="url(#clip0_1_28)">
<g opacity="0.1">
<path fill-rule="evenodd" clip-rule="evenodd" d="M1684.31 31.582C1684.31 31.582 1724.26 64.7107 1748 77.5914C1771.74 90.4721 1784.75 84.9527 1784.75 84.9527C1784.75 84.9527 1805.71 90.6166 1818.54 99.7474C1831.36 108.878 1833.45 115.812 1841.4 125.015C1849.35 134.218 1873.65 131.696 1873.65 131.696L1929.04 158.312L1985.35 187.3C1985.35 187.3 1929.65 157.073 1923.76 147.869C1917.87 138.666 1872.12 105.201 1864.17 95.9976C1856.22 86.7945 1845.28 88.6363 1837.33 75.7556C1829.38 62.8749 1820.44 48.1464 1807.51 37.1075C1794.6 26.0626 1767.79 9.49827 1753.36 2.13701C1738.94 -5.22425 1716.08 -12.5855 1716.08 -12.5855L1676.33 -20.8677L1637.58 -40.4836H1459.68C1459.68 -40.4836 1546.94 15.0237 1586.59 28.8253C1601.6 34.0438 1684.32 31.5881 1684.32 31.5881L1684.31 31.582Z" fill="#5A3E9E"/>
<path fill-rule="evenodd" clip-rule="evenodd" d="M803.457 203.141C803.457 203.141 833.522 221.343 841.927 228.012C850.332 234.681 877.94 237.648 883.348 239.502C888.757 241.356 901.719 258.035 901.719 258.035C901.719 258.035 909.188 270.368 910.975 279.21C912.77 288.052 936.744 298.061 936.744 298.061L959.489 306.957C959.489 306.957 924.243 270.265 920.31 261.375C916.371 252.479 921.194 244.329 910.982 239.508C900.763 234.693 875.925 226.91 873.337 218.014C870.75 209.118 830.323 177.988 817.517 172.432C804.711 166.871 766.729 153.533 766.729 153.533C766.729 153.533 791.405 190.923 803.463 203.153L803.457 203.141Z" fill="#5A3E9E"/>
<path fill-rule="evenodd" clip-rule="evenodd" d="M140.551 398.819C140.551 398.819 189.546 439.453 218.668 455.259C247.791 471.059 263.756 464.288 263.756 464.288C263.756 464.288 289.472 471.234 305.203 482.435C320.935 493.637 323.496 502.141 333.247 513.433C342.998 524.719 372.802 521.625 372.802 521.625L440.746 554.272L509.814 589.827C509.814 589.827 441.487 552.749 434.265 541.464C427.036 530.178 370.917 489.122 361.167 477.837C351.416 466.551 338.005 468.808 328.254 453.002C318.504 437.202 307.531 419.139 291.682 405.596C275.834 392.054 242.948 371.733 225.26 362.705C207.565 353.676 179.529 344.642 179.529 344.642L130.768 334.482L83.2231 310.418H-135C-135 310.418 -27.9687 378.505 20.6749 395.436C39.0714 401.841 140.551 398.825 140.551 398.825V398.819Z" fill="#5A3E9E"/>
<path fill-rule="evenodd" clip-rule="evenodd" d="M1766.04 293.052C1766.04 293.052 1832.44 327.306 1840.85 333.975C1849.25 340.645 1835.59 344.93 1839.52 348.842C1849.3 358.581 1899.57 371.649 1899.57 371.649C1899.57 371.649 1907.96 374.291 1909.75 383.133C1911.55 391.975 1922.8 397.699 1922.8 397.699L1945.54 406.595C1945.54 406.595 1897.46 369.277 1893.52 360.387C1889.58 351.491 1883.32 350.444 1873.11 345.628C1862.89 340.813 1828.88 328.167 1826.29 319.271C1823.7 310.375 1761.8 240.422 1748.99 234.866C1736.18 229.305 1687.97 222.521 1687.97 222.521C1687.97 222.521 1753.99 280.822 1766.04 293.052Z" fill="#5A3E9E"/>
<path fill-rule="evenodd" clip-rule="evenodd" d="M641.158 -18.7617C641.158 -18.7617 697.257 20.0007 723.123 30.215C723.123 30.215 755.476 27.9759 759.851 30.215C764.226 32.4541 783.441 43.4929 785.43 47.7905C787.42 52.0821 788.746 61.2852 792.718 65.5827C796.696 69.8743 832.468 85.8247 845.06 87.6665C857.651 89.5083 888.126 95.0278 894.087 98.7114C900.048 102.395 898.065 110.978 901.374 115.276C904.689 119.567 924.561 126.935 932.512 131.84C940.462 136.746 965.3 135.524 972.756 138.587C980.213 141.657 996.113 150.854 996.113 150.854L1002.07 155.76C1002.07 155.76 998.746 166.191 1002.07 169.254C1005.39 172.324 1019.3 174.774 1019.3 174.774C1019.3 174.774 1008.7 164.957 1008.7 158.823C1008.7 152.69 1002.07 147.778 1002.07 147.778C1002.07 147.778 968.947 133.67 964.306 129.986C959.671 126.303 917.924 94.4018 914.616 88.8824C911.3 83.3629 904.013 68.0265 900.041 63.7289C896.063 59.4373 858.302 50.2342 849.025 46.5506C839.749 42.867 827.814 31.8281 822.185 22.625C816.562 13.4219 805.959 -12.0505 802.644 -15.4092C799.329 -18.7678 792.042 -18.7678 792.042 -18.7678H641.145L641.158 -18.7617Z" fill="#5A3E9E"/>
<path fill-rule="evenodd" clip-rule="evenodd" d="M1200.72 263.742C1200.72 263.742 1230.79 281.943 1239.19 288.612C1247.6 295.281 1275.21 298.249 1280.62 300.103C1286.02 301.956 1298.99 318.635 1298.99 318.635C1298.99 318.635 1306.46 330.968 1308.24 339.81C1310.04 348.652 1334.01 358.662 1334.01 358.662L1356.76 367.558C1356.76 367.558 1321.51 330.866 1317.58 321.976C1313.64 313.08 1318.46 304.93 1308.25 300.109C1298.03 295.293 1273.19 287.511 1270.6 278.615C1268.02 269.719 1227.59 238.588 1214.78 233.033C1201.98 227.471 1164 214.133 1164 214.133C1164 214.133 1188.67 251.523 1200.73 263.754L1200.72 263.742Z" fill="#5A3E9E"/>
<path fill-rule="evenodd" clip-rule="evenodd" d="M1208.36 60.0514C1208.36 60.0514 1248.31 93.1801 1272.05 106.061C1295.79 118.941 1308.8 113.422 1308.8 113.422C1308.8 113.422 1329.77 119.086 1342.59 128.217C1355.42 137.348 1353.43 153.912 1361.38 163.115C1369.33 172.318 1402.12 165.878 1402.12 165.878L1451.27 216.143L1483.75 247.773C1483.75 247.773 1448.69 205.441 1442.8 196.244C1436.91 187.041 1396.16 133.67 1388.21 124.467C1380.26 115.264 1369.32 117.106 1361.37 104.225C1353.42 91.3443 1344.48 76.6157 1331.55 65.5769C1318.64 54.532 1291.83 37.9676 1277.4 30.6064C1262.98 23.2451 1240.12 15.8839 1240.12 15.8839L1200.37 7.60169L1161.62 -12.0143H983.723C983.723 -12.0143 1070.98 43.4931 1110.63 57.2947C1125.64 62.5132 1208.36 60.0574 1208.36 60.0574L1208.36 60.0514Z" fill="#5A3E9E"/>
<path fill-rule="evenodd" clip-rule="evenodd" d="M1365.61 -6.42834C1365.61 -6.42834 1387.23 22.0958 1402.71 30.3779C1418.19 38.6601 1437.77 42.1873 1445.08 50.4694C1452.4 58.7516 1480.73 77.6874 1480.73 77.6874L1521.39 93.2586C1521.39 93.2586 1466.03 49.9217 1459.96 39.8398C1453.9 29.764 1437.62 21.4818 1437.62 21.4818L1365.61 -6.42834Z" fill="#5A3E9E"/>
<path fill-rule="evenodd" clip-rule="evenodd" d="M-22.5 161.991C-22.5 161.991 47.0622 208.584 61.0254 219.792C74.9886 230.999 112.497 230.15 124.913 241.911C137.329 253.673 159.593 258.825 175.181 274.805C190.77 290.78 242.397 302.553 259.994 321.405C277.597 340.256 307.532 347.978 322.62 356.489C337.708 365 384.466 385.615 384.466 385.615C384.466 385.615 327.385 360.877 318.076 336.139C308.767 311.401 314.052 280.572 314.052 280.572C314.052 280.572 326.013 278.146 314.052 257.663C302.091 237.18 312.083 224.125 297.066 206.947C282.05 189.769 274.867 158.843 285.138 144.415C295.409 129.988 319.337 87.6259 314.052 62.4243C308.767 37.2166 355.22 18.666 355.22 18.666C355.22 18.666 425.465 24.8536 433.909 35.1581C442.353 45.4687 504.174 62.4243 504.174 62.4243C504.174 62.4243 553.571 64.9523 560.306 62.4243C567.034 59.8963 588.206 76.3884 605.452 90.816C622.698 105.25 626.059 96.4558 650.007 111.901C673.961 127.345 678.538 150.663 692.28 161.997C692.28 161.997 676.899 137.108 672.063 111.901C672.063 111.901 696.667 114.411 714.479 118.534C732.29 122.657 740.826 121.742 753.131 130.445C765.437 139.149 778.984 144.644 778.984 144.644C778.984 144.644 758.143 127.237 753.131 117.613C748.119 107.994 744.16 98.3698 737.731 94.7043C731.302 91.0387 658.529 74.041 639.885 66.0477C621.242 58.0545 605.452 31.7152 605.452 31.7152C605.452 31.7152 562.782 -23.7921 535.864 -24.6348C508.945 -25.4775 461.758 -37.4734 444.577 -48.6868C427.396 -59.9002 370.698 -123.612 370.698 -123.612H-13.0352L-22.5 161.991Z" fill="#5A3E9E"/>
<path fill-rule="evenodd" clip-rule="evenodd" d="M593.041 273.539C593.041 273.539 623.105 291.741 631.511 298.41C639.916 305.079 667.524 308.046 672.932 309.9C678.341 311.754 691.303 328.433 691.303 328.433C691.303 328.433 698.772 340.766 700.559 349.608C702.354 358.449 726.328 368.459 726.328 368.459L749.073 377.355C749.073 377.355 713.827 340.663 709.894 331.773C705.955 322.877 710.778 314.727 700.566 309.906C690.347 305.091 665.509 297.308 662.921 288.412C660.334 279.516 619.907 248.386 607.101 242.83C594.295 237.269 556.312 223.93 556.312 223.93C556.312 223.93 580.989 261.321 593.047 273.551L593.041 273.539Z" fill="#5A3E9E"/>
</g>
<path d="M1383.18 12.7174C1382.27 12.7174 1381.53 11.9397 1381.53 10.9803C1381.53 10.0209 1382.27 9.24316 1383.18 9.24316C1384.09 9.24316 1384.83 10.0209 1384.83 10.9803C1384.83 11.9397 1384.09 12.7174 1383.18 12.7174Z" fill="white"/>
<path d="M1331.71 8.09249C1331.71 8.72037 1332.2 9.24358 1332.81 9.24358C1333.42 9.24358 1333.92 8.72037 1333.92 8.09249C1333.92 7.46461 1333.42 6.94141 1332.81 6.94141C1332.2 6.94141 1331.71 7.46461 1331.71 8.09249Z" fill="white"/>
<path d="M1360.86 211.001C1360.04 210.583 1359.05 210.939 1358.64 211.797C1358.24 212.655 1358.57 213.701 1359.41 214.12C1360.25 214.538 1361.22 214.183 1361.63 213.324C1362.03 212.466 1361.69 211.42 1360.86 211.001Z" fill="white"/>
<path d="M1321.63 53.7815C1321.09 53.5094 1320.41 53.7396 1320.14 54.3047C1319.87 54.8698 1320.1 55.5604 1320.64 55.8534C1321.18 56.1255 1321.86 55.8953 1322.13 55.3302C1322.4 54.7651 1322.17 54.0745 1321.63 53.7815Z" fill="white"/>
<path d="M1552.95 181.39C1551.66 181.662 1550.8 182.959 1551.07 184.32C1551.32 185.68 1552.59 186.538 1553.88 186.287C1555.16 186.015 1556.02 184.717 1555.75 183.357C1555.5 182.017 1554.24 181.138 1552.95 181.39Z" fill="white"/>
<g opacity="0.64">
<path d="M1851.7 118.135C1851.7 118.554 1852.01 118.889 1852.42 118.889C1852.83 118.889 1853.14 118.554 1853.14 118.135C1853.14 117.716 1852.83 117.382 1852.42 117.382C1852.01 117.382 1851.7 117.716 1851.7 118.135Z" fill="white"/>
<path d="M1822.21 84.2091C1822.21 84.4812 1822.43 84.7114 1822.68 84.7114C1822.93 84.7114 1823.15 84.4812 1823.15 84.2091C1823.15 83.937 1822.93 83.7068 1822.68 83.7068C1822.43 83.7068 1822.21 83.937 1822.21 84.2091Z" fill="white"/>
<path d="M1815.04 156.479C1814.68 156.29 1814.25 156.458 1814.07 156.814C1813.89 157.17 1814.05 157.63 1814.41 157.818C1814.77 158.007 1815.2 157.839 1815.38 157.483C1815.56 157.107 1815.4 156.667 1815.04 156.479Z" fill="white"/>
<path d="M1745.84 94.6534C1745.59 94.5279 1745.32 94.6534 1745.21 94.8836C1745.09 95.1348 1745.21 95.4278 1745.43 95.5534C1745.68 95.679 1745.95 95.5534 1746.07 95.3231C1746.18 95.0929 1746.07 94.779 1745.84 94.6534Z" fill="white"/>
<path d="M1901.08 154.012C1900.52 154.138 1900.16 154.703 1900.27 155.289C1900.38 155.875 1900.92 156.252 1901.49 156.147C1902.05 156.021 1902.41 155.456 1902.3 154.87C1902.19 154.284 1901.65 153.907 1901.08 154.012Z" fill="white"/>
</g>
<g opacity="0.64">
<path d="M1417.47 122.683C1417.54 122.264 1417.27 121.887 1416.88 121.804C1416.5 121.741 1416.11 122.013 1416.05 122.411C1415.98 122.829 1416.25 123.206 1416.63 123.29C1417.02 123.373 1417.4 123.08 1417.47 122.683Z" fill="white"/>
<path d="M1438.6 127.747C1438.65 127.475 1438.46 127.224 1438.22 127.161C1437.95 127.119 1437.7 127.307 1437.65 127.579C1437.61 127.851 1437.79 128.103 1438.04 128.165C1438.31 128.207 1438.56 128.019 1438.6 127.747Z" fill="white"/>
<path d="M1492.61 127.409C1493.19 127.849 1494.01 127.702 1494.41 127.095C1494.84 126.488 1494.71 125.651 1494.12 125.212C1493.53 124.772 1492.72 124.919 1492.31 125.526C1491.88 126.132 1492.02 126.97 1492.61 127.409Z" fill="white"/>
<path d="M1410.21 71.13C1410.59 71.423 1411.14 71.3392 1411.43 70.9206C1411.7 70.523 1411.63 69.958 1411.23 69.6649C1410.84 69.3719 1410.3 69.4556 1410.01 69.8742C1409.73 70.2718 1409.8 70.8369 1410.21 71.13Z" fill="white"/>
<path d="M1374.63 78.5822C1375.19 78.5822 1375.65 78.0799 1375.65 77.4729C1375.65 76.866 1375.15 76.4055 1374.58 76.4265C1374.02 76.4265 1373.57 76.9288 1373.57 77.5357C1373.57 78.1427 1374.06 78.6031 1374.63 78.5822Z" fill="white"/>
<path d="M1550.24 61.6317C1550.24 62.3852 1550.83 62.9921 1551.55 62.9921C1552.27 62.9921 1552.86 62.3852 1552.86 61.6317C1552.86 60.8782 1552.27 60.2712 1551.55 60.2712C1550.83 60.2712 1550.24 60.8782 1550.24 61.6317Z" fill="white"/>
<path d="M1597.26 155.561C1597.26 157.068 1598.44 158.282 1599.88 158.282C1601.33 158.282 1602.5 157.068 1602.5 155.561C1602.5 154.055 1601.33 152.841 1599.88 152.841C1598.44 152.841 1597.26 154.055 1597.26 155.561Z" fill="white"/>
</g>
<g opacity="0.64">
<path d="M270.813 12.2227C270.587 11.9925 270.225 11.9925 269.999 12.2227C269.773 12.4529 269.773 12.8506 269.999 13.0808C270.225 13.311 270.587 13.311 270.813 13.0808C271.039 12.8506 271.039 12.4529 270.813 12.2227Z" fill="white"/>
</g>
<g opacity="0.64">
<path d="M130.143 100.146C129.804 100.502 129.782 101.067 130.143 101.423C130.482 101.778 131.024 101.799 131.386 101.423C131.725 101.067 131.747 100.502 131.386 100.146C131.024 99.7902 130.505 99.7693 130.143 100.146Z" fill="white"/>
<path d="M133.439 44.9309C133.213 45.1611 133.213 45.5587 133.439 45.789C133.665 46.0192 134.026 46.0401 134.252 45.789C134.478 45.5587 134.478 45.182 134.252 44.9309C134.026 44.6797 133.665 44.6797 133.439 44.9309Z" fill="white"/>
<path d="M67.4474 99.4283C67.2893 98.9469 66.8148 98.6957 66.3404 98.8423C65.8885 98.9888 65.64 99.512 65.7755 99.9933C65.9337 100.475 66.4081 100.726 66.8826 100.579C67.3345 100.433 67.583 99.9096 67.4474 99.4283Z" fill="white"/>
<path d="M142.025 174.946C141.46 174.527 140.669 174.695 140.285 175.281C139.901 175.867 140.036 176.683 140.601 177.102C141.166 177.52 141.957 177.353 142.341 176.767C142.725 176.181 142.589 175.365 142.025 174.946Z" fill="white"/>
</g>
<g opacity="0.64">
<path d="M866.831 140.244C867.193 140.6 867.803 140.683 868.187 140.39C868.571 140.118 868.593 139.595 868.209 139.218C867.848 138.862 867.238 138.779 866.854 139.072C866.47 139.344 866.447 139.867 866.831 140.244Z" fill="white"/>
<path d="M808.702 131.138C808.951 131.389 809.357 131.431 809.606 131.243C809.854 131.055 809.877 130.699 809.606 130.469C809.357 130.217 808.951 130.176 808.702 130.364C808.454 130.552 808.431 130.908 808.702 131.138Z" fill="white"/>
<path d="M865.418 199.641C864.921 199.725 864.627 200.164 864.785 200.625C864.943 201.085 865.486 201.357 865.983 201.274C866.48 201.19 866.773 200.751 866.615 200.29C866.457 199.83 865.915 199.557 865.418 199.641Z" fill="white"/>
<path d="M744.642 193.908C744.303 193.971 744.123 194.264 744.236 194.557C744.349 194.85 744.71 195.059 745.027 194.996C745.365 194.934 745.546 194.641 745.433 194.348C745.32 194.055 744.959 193.845 744.642 193.908Z" fill="white"/>
<path d="M945.766 137.106C945.336 137.608 945.472 138.361 946.104 138.801C946.737 139.24 947.596 139.198 948.025 138.696C948.454 138.194 948.319 137.44 947.686 137.001C947.053 136.561 946.195 136.603 945.766 137.106Z" fill="white"/>
</g>
<g opacity="0.64">
<path d="M586.954 196.013C586.615 196.369 586.592 196.934 586.954 197.29C587.315 197.645 587.835 197.666 588.196 197.29C588.535 196.934 588.558 196.369 588.196 196.013C587.857 195.657 587.315 195.636 586.954 196.013Z" fill="white"/>
<path d="M590.226 140.797C590 141.028 590 141.404 590.226 141.655C590.452 141.886 590.814 141.907 591.04 141.655C591.265 141.425 591.265 141.028 591.04 140.797C590.814 140.567 590.452 140.546 590.226 140.797Z" fill="white"/>
<path d="M521.338 181.968C521.18 181.486 520.705 181.235 520.231 181.382C519.779 181.528 519.53 182.051 519.666 182.533C519.824 183.014 520.299 183.265 520.773 183.119C521.225 182.972 521.474 182.449 521.338 181.968Z" fill="white"/>
<path d="M517.165 80.7309C517.075 80.417 516.736 80.2496 516.442 80.3542C516.148 80.4589 515.968 80.7937 516.081 81.1286C516.171 81.4425 516.51 81.61 516.804 81.5054C517.097 81.4007 517.278 81.0658 517.165 80.7309Z" fill="white"/>
<path d="M572.8 246.842C572.235 246.423 571.444 246.591 571.06 247.177C570.676 247.763 570.812 248.579 571.377 248.998C571.941 249.416 572.732 249.249 573.116 248.663C573.5 248.077 573.365 247.26 572.8 246.842Z" fill="white"/>
</g>
<g opacity="0.64">
<path d="M754.641 58.2112C754.573 58.6297 754.844 59.0064 755.228 59.0902C755.612 59.1529 755.996 58.8809 756.064 58.4833C756.132 58.0647 755.861 57.6879 755.477 57.6042C755.093 57.5205 754.709 57.8135 754.641 58.2112Z" fill="white"/>
<path d="M733.5 53.1488C733.454 53.4209 733.635 53.672 733.884 53.7348C734.155 53.7767 734.403 53.5883 734.448 53.3163C734.494 53.0442 734.313 52.793 734.064 52.7303C733.793 52.6884 733.545 52.8767 733.5 53.1488Z" fill="white"/>
<path d="M679.498 53.5039C678.911 53.0644 678.098 53.2109 677.691 53.8178C677.262 54.4248 677.397 55.262 677.985 55.7015C678.572 56.141 679.385 55.9945 679.792 55.3875C680.221 54.7806 680.086 53.9434 679.498 53.5039Z" fill="white"/>
<path d="M704.08 21.8779C703.696 21.5849 703.153 21.6687 702.86 22.0872C702.588 22.4849 702.656 23.05 703.063 23.343C703.447 23.636 703.989 23.5523 704.283 23.1337C704.577 22.7151 704.486 22.1709 704.08 21.8779Z" fill="white"/>
<path d="M811.921 118.301C811.356 118.301 810.904 118.803 810.904 119.41C810.904 120.017 811.401 120.478 811.966 120.457C812.531 120.457 812.983 119.954 812.983 119.347C812.983 118.74 812.486 118.28 811.921 118.301Z" fill="white"/>
<path d="M640.67 190.512C639.947 190.512 639.36 189.903 639.36 189.151C639.36 188.4 639.947 187.791 640.67 187.791C641.394 187.791 641.981 188.4 641.981 189.151C641.981 189.903 641.394 190.512 640.67 190.512Z" fill="white"/>
<path d="M574.832 25.3324C574.832 23.8254 573.657 22.6116 572.211 22.6116C570.765 22.6116 569.591 23.8254 569.591 25.3324C569.591 26.8393 570.765 28.0532 572.211 28.0532C573.657 28.0532 574.832 26.8393 574.832 25.3324Z" fill="white"/>
</g>
<g opacity="0.64">
<path d="M1519.09 361.274C1518.98 360.876 1518.57 360.604 1518.18 360.688C1517.8 360.771 1517.57 361.148 1517.69 361.546C1517.8 361.944 1518.21 362.216 1518.59 362.132C1518.98 362.048 1519.2 361.671 1519.09 361.274Z" fill="white"/>
<path d="M1540.69 358.219C1540.62 357.947 1540.35 357.78 1540.08 357.822C1539.8 357.863 1539.67 358.136 1539.74 358.408C1539.8 358.68 1540.08 358.847 1540.35 358.805C1540.62 358.763 1540.75 358.491 1540.69 358.219Z" fill="white"/>
<path d="M1590.14 338.254C1590.86 338.443 1591.54 338.024 1591.68 337.312C1591.81 336.601 1591.32 335.868 1590.59 335.68C1589.87 335.492 1589.19 335.91 1589.06 336.622C1588.92 337.333 1589.42 338.066 1590.14 338.254Z" fill="white"/>
<path d="M1581.12 376.242C1581.6 376.367 1582.07 376.095 1582.14 375.614C1582.23 375.132 1581.89 374.651 1581.42 374.525C1580.94 374.4 1580.47 374.672 1580.4 375.153C1580.31 375.635 1580.65 376.116 1581.12 376.242Z" fill="white"/>
<path d="M1440.69 326.952C1441.21 326.722 1441.41 326.115 1441.14 325.571C1440.87 325.027 1440.24 324.776 1439.72 324.985C1439.2 325.215 1439 325.822 1439.27 326.366C1439.54 326.91 1440.17 327.162 1440.69 326.952Z" fill="white"/>
<path d="M1566.41 199.972C1566.73 200.662 1567.54 201.018 1568.2 200.746C1568.85 200.474 1569.15 199.721 1568.81 199.03C1568.47 198.339 1567.68 197.983 1567.02 198.256C1566.37 198.528 1566.07 199.281 1566.41 199.972Z" fill="white"/>
</g>
<g opacity="0.64">
<path d="M725.125 339.251C724.944 338.351 724.266 337.744 723.634 337.932C723.001 338.1 722.617 339 722.821 339.9C723.024 340.8 723.679 341.407 724.312 341.218C724.944 341.03 725.328 340.151 725.125 339.251Z" fill="white"/>
<path d="M760.533 332.364C760.42 331.757 759.968 331.359 759.539 331.484C759.11 331.61 758.861 332.196 758.997 332.803C759.11 333.41 759.562 333.808 759.991 333.682C760.42 333.557 760.669 332.97 760.533 332.364Z" fill="white"/>
<path d="M841.667 287.097C842.842 287.537 843.972 286.574 844.175 284.963C844.378 283.351 843.588 281.698 842.413 281.258C841.238 280.819 840.108 281.781 839.905 283.393C839.702 285.004 840.492 286.658 841.667 287.097Z" fill="white"/>
<path d="M826.869 373.197C827.66 373.49 828.405 372.841 828.541 371.773C828.677 370.706 828.157 369.597 827.366 369.304C826.575 369.011 825.83 369.66 825.694 370.727C825.559 371.794 826.078 372.904 826.869 373.197Z" fill="white"/>
<path d="M476.833 306.037C477.692 305.534 478.031 304.132 477.579 302.897C477.127 301.662 476.088 301.076 475.229 301.579C474.371 302.081 474.032 303.483 474.483 304.718C474.935 305.953 475.975 306.539 476.833 306.037Z" fill="white"/>
</g>
<g opacity="0.64">
<path d="M1106.77 209.703C1107.15 209.473 1107.29 209.034 1107.09 208.72C1106.88 208.406 1106.41 208.322 1106.02 208.552C1105.64 208.782 1105.5 209.222 1105.71 209.536C1105.91 209.85 1106.39 209.934 1106.77 209.703Z" fill="white"/>
<path d="M1116.69 227.641C1116.94 227.494 1117.03 227.201 1116.89 226.992C1116.75 226.783 1116.44 226.741 1116.19 226.888C1115.94 227.034 1115.85 227.327 1115.99 227.536C1116.12 227.746 1116.44 227.787 1116.69 227.641Z" fill="white"/>
<path d="M1152.84 264.6C1152.86 265.291 1153.52 265.751 1154.29 265.647C1155.05 265.542 1155.66 264.872 1155.62 264.182C1155.6 263.491 1154.94 263.03 1154.17 263.135C1153.4 263.24 1152.79 263.909 1152.84 264.6Z" fill="white"/>
<path d="M1110.86 268.662C1110.86 269.123 1111.31 269.437 1111.83 269.353C1112.35 269.269 1112.73 268.851 1112.73 268.39C1112.73 267.93 1112.28 267.616 1111.76 267.7C1111.24 267.783 1110.86 268.202 1110.86 268.662Z" fill="white"/>
<path d="M1117.44 130.36C1117.83 130.736 1118.55 130.736 1119.02 130.318C1119.5 129.92 1119.57 129.271 1119.18 128.874C1118.8 128.497 1118.07 128.497 1117.6 128.916C1117.13 129.313 1117.06 129.962 1117.44 130.36Z" fill="white"/>
<path d="M1287.83 200.371C1287.22 200.873 1287.11 201.668 1287.58 202.17C1288.06 202.673 1288.94 202.673 1289.55 202.17C1290.16 201.668 1290.27 200.873 1289.8 200.371C1289.32 199.868 1288.44 199.868 1287.83 200.371Z" fill="white"/>
</g>
<g opacity="0.64">
<path d="M331.319 291.182C331.206 290.784 330.799 290.512 330.415 290.596C330.031 290.68 329.805 291.056 329.918 291.454C330.031 291.852 330.437 292.124 330.822 292.04C331.206 291.956 331.431 291.58 331.319 291.182Z" fill="white"/>
<path d="M352.912 288.149C352.845 287.877 352.574 287.71 352.302 287.752C352.031 287.793 351.896 288.066 351.964 288.338C352.031 288.61 352.302 288.777 352.574 288.735C352.845 288.693 352.98 288.421 352.912 288.149Z" fill="white"/>
<path d="M402.371 268.157C403.094 268.345 403.772 267.927 403.907 267.215C404.043 266.503 403.546 265.771 402.823 265.583C402.1 265.394 401.422 265.813 401.287 266.524C401.151 267.236 401.648 267.969 402.371 268.157Z" fill="white"/>
<path d="M252.928 256.859C253.448 256.629 253.651 256.022 253.38 255.478C253.109 254.934 252.476 254.683 251.956 254.892C251.437 255.122 251.233 255.729 251.505 256.273C251.776 256.817 252.408 257.068 252.928 256.859Z" fill="white"/>
</g>
<path d="M1194.29 82.3483C1193.63 80.9878 1192.05 80.4436 1190.74 81.1343C1189.43 81.825 1188.91 83.4784 1189.56 84.8388C1190.22 86.1993 1191.8 86.7434 1193.11 86.0527C1194.42 85.362 1194.94 83.7087 1194.29 82.3483Z" fill="white"/>
<path d="M1005.72 83.9603C1006.65 83.9603 1007.37 83.165 1007.37 82.2022C1007.37 81.2395 1006.6 80.486 1005.7 80.486C1004.77 80.486 1004.05 81.2813 1004.05 82.2441C1004.05 83.2068 1004.82 83.9603 1005.72 83.9603Z" fill="white"/>
<path d="M1183.51 138.566C1184.12 138.566 1184.62 138.043 1184.6 137.394C1184.6 136.766 1184.08 136.243 1183.47 136.264C1182.86 136.264 1182.36 136.787 1182.38 137.436C1182.38 138.063 1182.9 138.587 1183.51 138.566Z" fill="white"/>
<path d="M808.105 147.145C807.517 145.931 806.094 145.45 804.919 146.057C803.744 146.664 803.292 148.15 803.88 149.364C804.467 150.577 805.891 151.059 807.065 150.452C808.24 149.845 808.692 148.359 808.105 147.145Z" fill="white"/>
<path d="M625.511 298.087C626.188 298.087 626.731 297.501 626.731 296.789C626.731 296.077 626.166 295.512 625.488 295.512C624.81 295.512 624.268 296.098 624.268 296.81C624.268 297.522 624.833 298.087 625.511 298.087Z" fill="white"/>
<path d="M701.616 84.3185C702.926 84.3185 703.966 83.1884 703.943 81.8279C703.943 80.4675 702.859 79.3792 701.548 79.4001C700.238 79.4211 699.199 80.5303 699.221 81.8907C699.221 83.2511 700.306 84.3395 701.616 84.3185Z" fill="white"/>
<path d="M265.604 157.446C266.214 156.944 266.327 156.023 265.853 155.395C265.379 154.767 264.497 154.642 263.887 155.144C263.277 155.646 263.164 156.567 263.639 157.195C264.113 157.823 264.994 157.948 265.604 157.446Z" fill="white"/>
<path d="M474.924 444.047C475.602 444.047 476.145 443.461 476.145 442.749C476.145 442.037 475.58 441.472 474.902 441.472C474.224 441.472 473.682 442.058 473.682 442.77C473.682 443.482 474.247 444.047 474.924 444.047Z" fill="white"/>
<path d="M532.938 217.718C534.248 217.718 535.288 216.588 535.265 215.227C535.265 213.867 534.181 212.778 532.87 212.799C531.56 212.82 530.521 213.929 530.543 215.29C530.543 216.65 531.628 217.739 532.938 217.718Z" fill="white"/>
<path d="M114.995 303.405C115.605 302.902 115.718 301.981 115.243 301.353C114.769 300.726 113.888 300.6 113.278 301.102C112.668 301.605 112.555 302.526 113.029 303.153C113.504 303.781 114.385 303.907 114.995 303.405Z" fill="white"/>
<g opacity="0.4" filter="url(#filter0_f_1_28)">
<ellipse cx="941.625" cy="16.6667" rx="885.375" ry="413.194" fill="#5A3E9E"/>
</g>
<rect opacity="0.8" width="1920" height="900" transform="matrix(1 0 0 -1 0 900)" fill="url(#paint0_linear_1_28)"/>
</g>
<defs>
<filter id="filter0_f_1_28" x="-293.75" y="-746.528" width="2470.75" height="1526.39" filterUnits="userSpaceOnUse" color-interpolation-filters="sRGB">
<feFlood flood-opacity="0" result="BackgroundImageFix"/>
<feBlend mode="normal" in="SourceGraphic" in2="BackgroundImageFix" result="shape"/>
<feGaussianBlur stdDeviation="175" result="effect1_foregroundBlur_1_28"/>
</filter>
<linearGradient id="paint0_linear_1_28" x1="960" y1="0" x2="960" y2="900" gradientUnits="userSpaceOnUse">
<stop stop-color="#050505"/>
<stop offset="1" stop-color="#050505" stop-opacity="0"/>
</linearGradient>
<clipPath id="clip0_1_28">
<rect width="1920" height="750" fill="white"/>
</clipPath>
</defs>
</svg>
